<svg xmlns="http://www.w3.org/2000/svg" version="1.1" viewBox="-5.0 -10.0 110.0 135.0">
 <path d="m17.293 64.668c-1.125 0-2.082-0.91797-2.082-2.043 0-0.29297-0.25-29.793 25.457-35.625 1.125-0.25 2.25 0.45703 2.5 1.582s-0.45703 2.25-1.582 2.5c-22.375 5.082-22.207 30.418-22.207 31.457 0 1.168-0.91797 2.082-2.043 2.125z"/>
 <path d="m82.707 64.668c-1.168 0-2.082-0.95703-2.043-2.125 0-1.082 0.16797-26.418-22.207-31.457-1.125-0.25-1.832-1.375-1.582-2.5s1.375-1.832 2.5-1.582c25.707 5.832 25.457 35.332 25.457 35.625 0 1.125-0.95703 2.043-2.082 2.043z"/>
 <path d="m18.75 82.293c-5.75 0-10.418-4.668-10.418-10.418s4.668-10.418 10.418-10.418 10.418 4.668 10.418 10.418-4.668 10.418-10.418 10.418zm0-16.668c-3.457 0-6.25 2.793-6.25 6.25s2.793 6.25 6.25 6.25 6.25-2.793 6.25-6.25-2.793-6.25-6.25-6.25z"/>
 <path d="m81.25 82.293c-5.75 0-10.418-4.668-10.418-10.418s4.668-10.418 10.418-10.418 10.418 4.668 10.418 10.418-4.668 10.418-10.418 10.418zm0-16.668c-3.457 0-6.25 2.793-6.25 6.25s2.793 6.25 6.25 6.25 6.25-2.793 6.25-6.25-2.793-6.25-6.25-6.25z"/>
 <path d="m89.582 30.207h-30.793c-1.168 0-2.082-0.91797-2.082-2.082 0-1.168 0.91797-2.082 2.082-2.082h30.793c1.168 0 2.082 0.91797 2.082 2.082 0 1.168-0.91797 2.082-2.082 2.082z"/>
 <path d="m41.207 30.207h-30.789c-1.168 0-2.082-0.91797-2.082-2.082 0-1.168 0.91797-2.082 2.082-2.082h30.793c1.168 0 2.082 0.91797 2.082 2.082 0 1.168-0.91797 2.082-2.082 2.082z"/>
 <path d="m50 38.543c-5.75 0-10.418-4.668-10.418-10.418s4.668-10.418 10.418-10.418 10.418 4.668 10.418 10.418-4.668 10.418-10.418 10.418zm0-16.668c-3.457 0-6.25 2.793-6.25 6.25s2.793 6.25 6.25 6.25 6.25-2.793 6.25-6.25-2.793-6.25-6.25-6.25z"/>
<text x="0.0" y="117.5" font-size="5.0" font-weight="bold" font-family="Arbeit Regular, Helvetica, Arial-Unicode, Arial, Sans-serif" fill="#000000">Created by Kharisma Mulyana</text><text x="0.0" y="122.5" font-size="5.0" font-weight="bold" font-family="Arbeit Regular, Helvetica, Arial-Unicode, Arial, Sans-serif" fill="#000000">from Noun Project</text></svg>