<svg xmlns="http://www.w3.org/2000/svg" version="1.1" viewBox="-5.0 -10.0 110.0 135.0">
 <path d="m77.211 40.379c-4.9609-4.9609-10.391-8.8789-15.281-11.039-5.1914-2.2891-9.25-2.3281-11.461-0.12891h-0.011719l-6.3789 6.3789-17.508-17.52c-1.2695-1.2695-3.4883-1.2695-4.7695 0l-10.812 10.809c-0.63672 0.64062-0.98828 1.4805-0.98828 2.3828 0 0.89844 0.35156 1.75 0.98828 2.3789l5.5586 5.5586v0.011719c0 0.011718 0 0 0.011719 0l5.5312 5.5312v0.011718c0 0.011719 0 0 0.011718 0l5.1016 5.1016v0.011719c0 0.011718 0 0 0.011719 0l5.1016 5.1016v0.011719c0 0.011719 0 0 0.011719 0l5.1016 5.1016v0.011719c0 0.011719 0 0 0.011718 0l5.1016 5.1016v0.011719c0 0.011719 0 0 0.011719 0l4.9219 4.9219v0.011719c0.058594 0.058594 0.10938 0.10938 0.17188 0.17188 0 0 0.011718 0.011719 0.011718 0.019531 0.011719 0.011719 0.011719 0.011719 0.019532 0.011719 7.9492 7.8906 16.488 12.57 22.09 12.57 1.8516 0 3.3789-0.51172 4.4609-1.5898l14.172-14.172v-0.011719c2.1992-2.2109 2.1484-6.2695-0.12891-11.461-2.1836-4.9102-6.1016-10.34-11.062-15.301zm-28.359-6.7383c-0.011718 1.9805 0.55859 4.3516 1.7383 7.0312 0.41016 0.92969 0.91016 1.8906 1.4414 2.8594l-6.5312-6.5312zm-36.453-1.4102c-0.53125-0.53125-0.53125-1.3984 0-1.9414l10.809-10.809c0.53125-0.53125 1.3984-0.53906 1.9414 0l4.8594 4.8594-3.7305 3.7305c-1.4805-0.5-3.1484-0.12891-4.2891 1-1.1289 1.1406-1.5 2.8086-1 4.2891l-3.7305 3.7305zm60.402 47.648c-1.7891 1.7891-6.0312 1.2617-11.328-1.5508l3.8594-3.8594c0.39062-0.39062 0.39062-1.0195 0-1.4102s-1.0195-0.39062-1.4102 0l-4.25 4.25c-1.4102-0.85156-2.8906-1.8516-4.3984-3l1.9219-1.9219c0.39063-0.39062 0.39063-1.0195 0-1.4102-0.39062-0.39062-1.0195-0.39062-1.4102 0l-2.0898 2.0898c-1.2891-1.0586-2.6016-2.2188-3.9102-3.4805l5.3281-5.3281c0.39062-0.39062 0.39062-1.0195 0-1.4102s-1.0195-0.39062-1.4102 0l-5.3398 5.3398-3.6992-3.6992 2.3203-2.3203c0.39062-0.39062 0.39062-1.0195 0-1.4102-0.39062-0.39062-1.0195-0.39062-1.4102 0l-2.3203 2.3203-3.6992-3.6992 5.3398-5.3398c0.39062-0.39062 0.39062-1.0195 0-1.4102s-1.0195-0.39062-1.4102 0l-5.3398 5.3398-3.6992-3.6992 2.3203-2.3203c0.39062-0.39062 0.39062-1.0195 0-1.4102-0.39062-0.39062-1.0195-0.39062-1.4102 0l-2.3203 2.3203-3.6992-3.6992 5.3398-5.3398c0.39062-0.39062 0.39062-1.0195 0-1.4102s-1.0195-0.39062-1.4102 0l-5.3398 5.3398-3.6992-3.6992 2.3203-2.3203c0.39062-0.39062 0.39062-1.0195 0-1.4102-0.39062-0.39062-1.0195-0.39062-1.4102 0l-2.3203 2.3203-4.1289-4.1289 4.2188-4.2188c0.32031-0.32031 0.37891-0.80859 0.16016-1.1992-0.48047-0.83984-0.32812-1.9102 0.35156-2.6016 0.69141-0.69141 1.7617-0.82813 2.6016-0.35156 0.39062 0.21875 0.87891 0.16016 1.1992-0.16016l4.2188-4.2188 11.941 11.938 18.25 18.25c8 8 16.641 12.762 22.289 12.762h0.050781zm14.168-14.168c-3.0781 3.0781-13.43-0.67188-23.922-11.172-4.7891-4.7891-8.5586-10-10.621-14.68-1.8984-4.3203-2.1016-7.6914-0.55078-9.2383 0.69141-0.69141 1.75-1.0391 3.0898-1.0391 1.6602 0 3.7617 0.53125 6.1484 1.5898 4.6797 2.0586 9.8906 5.8281 14.68 10.621 4.7891 4.7891 8.5586 10 10.621 14.68 1.9062 4.3164 2.1055 7.6875 0.55469 9.2383z"/>
 <path d="m72.34 45.25c-3.1797-3.1797-7.4102-5.3984-9.3203-3.4883-0.51953 0.51953-1.2305 1.7812-0.10156 4.3398 0.71094 1.6016 1.9805 3.3711 3.5898 4.9805 2.3711 2.3711 5.3086 4.1992 7.4492 4.1992 0.73828 0 1.3906-0.21875 1.8789-0.71094 0.51953-0.51953 1.2305-1.7812 0.10156-4.3398-0.71875-1.6016-1.9883-3.3711-3.5977-4.9805zm2.0703 7.9102c-0.44922 0.44922-3.1992-0.19141-6.5-3.4883-1.4414-1.4414-2.5586-2.9883-3.1719-4.3711-0.55078-1.2383-0.48828-1.9492-0.30859-2.1211 0.078124-0.078126 0.23828-0.12891 0.46094-0.12891 1.0117 0 3.3398 0.92188 6.0312 3.6094 1.4414 1.4414 2.5586 2.9883 3.1719 4.3711 0.55469 1.25 0.49609 1.957 0.31641 2.1289z"/>
<text x="0.0" y="117.5" font-size="5.0" font-weight="bold" font-family="Arbeit Regular, Helvetica, Arial-Unicode, Arial, Sans-serif" fill="#000000">Created by Rahmad romadoni</text><text x="0.0" y="122.5" font-size="5.0" font-weight="bold" font-family="Arbeit Regular, Helvetica, Arial-Unicode, Arial, Sans-serif" fill="#000000">from Noun Project</text></svg>